<?xml version="1.0" encoding="UTF-8"?>
<svg width="21px" height="22px" viewBox="0 0 21 22" version="1.1" xmlns="http://www.w3.org/2000/svg" xmlns:xlink="http://www.w3.org/1999/xlink">
    <!-- Generator: Sketch 48.2 (47327) - http://www.bohemiancoding.com/sketch -->
    <title>Group</title>
    <desc>Created with Sketch.</desc>
    <defs>
        <polygon id="path-1" points="0.0026631016 17.9322638 11.1346524 17.9322638 11.1346524 0.0150441885 0.0026631016 0.0150441885"></polygon>
        <polygon id="path-3" points="0 18.0706061 0 0.0154723708 11.3371693 0.0154723708 11.3371693 18.0706061"></polygon>
        <rect id="path-5" x="13" y="0" width="6" height="6" rx="3"></rect>
    </defs>
    <g id="Subscriber-2" stroke="none" stroke-width="1" fill="none" fill-rule="evenodd" transform="translate(-524.000000, -3.000000)">
        <g id="Group">
            <g transform="translate(524.000000, 5.000000)">
                <g id="Page-1">
                    <g id="Group-3" transform="translate(6.737968, 2.052264)">
                        <mask id="mask-2" fill="white">
                            <use xlink:href="#path-1"></use>
                        </mask>
                        <g id="Clip-2"></g>
                        <path d="M2.73909804,15.792984 L3.04612121,15.760221 C4.30109447,15.6262816 5.51596078,15.1871016 6.55920499,14.4904171 C6.6880107,14.403893 6.85075579,14.3763708 6.99920499,14.4165847 L9.26498039,15.024107 L8.65827807,12.7582246 C8.61774332,12.607066 8.64423173,12.4463886 8.73072014,12.3176185 C9.59528342,11.0254973 10.0521818,9.51790374 10.0521818,7.95786809 C10.0521818,5.05704813 8.46177184,2.40260963 5.90177184,1.03059537 C5.7740713,0.962324421 5.68091622,0.848278075 5.63916934,0.709668449 C5.59745811,0.571379679 5.61207487,0.425247772 5.68034581,0.2982959 C5.81720856,0.0424670232 6.15442781,-0.0616327986 6.41250267,0.076228164 C9.3252656,1.63626381 11.1346774,4.65637077 11.1346774,7.95786809 C11.1346774,9.60367914 10.6832335,11.2124135 9.82893761,12.6104171 L9.76686988,12.7118075 L10.5534296,15.6493476 C10.6039109,15.8361212 10.5506132,16.035836 10.4150695,16.169918 C10.2795258,16.3053904 10.0729661,16.3611123 9.89064884,16.312164 L6.95417825,15.5255686 L6.85260963,15.5876364 C5.67653119,16.3059251 4.37767201,16.7323779 2.99218182,16.8551586 L2.73909804,16.8775472 L2.73909804,17.9322709 L0.0026631016,16.3531266 L2.73909804,14.772984 L2.73909804,15.792984 Z" id="Fill-1" fill="#231F20" mask="url(#mask-2)"></path>
                    </g>
                    <g id="Group-6" transform="translate(0.000000, 0.020178)">
                        <mask id="mask-4" fill="white">
                            <use xlink:href="#path-3"></use>
                        </mask>
                        <g id="Clip-5"></g>
                        <path d="M8.3407344,1.07620321 L8.60016399,1.05905526 L8.60016399,0.0154545455 L11.3371693,1.59502674 L8.60016399,3.17538324 L8.60016399,2.14008913 L8.30009269,2.16433155 C4.25331907,2.49128342 1.0833369,5.92875223 1.0833369,9.98996435 C1.0833369,13.0086453 2.76757932,15.7113547 5.47866667,17.0435472 C5.74640285,17.1753476 5.85727629,17.5001961 5.72586809,17.7675045 C5.63431729,17.9545276 5.44807843,18.0706061 5.23970053,18.0706061 C5.15592157,18.0706061 5.07592157,18.0521747 5.00240998,18.0157754 C1.91688414,16.4998752 -1.42602496e-05,13.4244742 -1.42602496e-05,9.98996435 C-1.42602496e-05,5.30080214 3.6636934,1.38543672 8.3407344,1.07620321" id="Fill-4" fill="#231F20" mask="url(#mask-4)"></path>
                    </g>
                    <path d="M4.50423886,9.2550303 C4.08751872,9.2550303 3.74848128,9.59374688 3.74848128,10.0101462 C3.74848128,10.4265455 4.08751872,10.765369 4.50423886,10.765369 C4.9207451,10.765369 5.25956863,10.4265455 5.25956863,10.0101462 C5.25956863,9.59374688 4.9207451,9.2550303 4.50423886,9.2550303" id="Fill-7" fill="#231F20"></path>
                    <path d="M13.36918,9.2550303 C12.9526738,9.2550303 12.6137433,9.59374688 12.6137433,10.0101462 C12.6137433,10.4265455 12.9526738,10.765369 13.36918,10.765369 C13.7856863,10.765369 14.1245098,10.4265455 14.1245098,10.0101462 C14.1245098,9.59374688 13.7856863,9.2550303 13.36918,9.2550303" id="Fill-9" fill="#939597"></path>
                    <path d="M8.93637077,9.2550303 C8.51997148,9.2550303 8.1812549,9.59374688 8.1812549,10.0101462 C8.1812549,10.4265455 8.51997148,10.765369 8.93637077,10.765369 C9.35287701,10.765369 9.69170053,10.4265455 9.69170053,10.0101462 C9.69170053,9.59374688 9.35287701,9.2550303 8.93637077,9.2550303" id="Fill-11" fill="#6C6E70"></path>
                </g>
            </g>
        </g>
    </g>
</svg>
